# xmcd CD database file
#
# Track frame offsets:
#	150
#	21192
#	40554
#	60444
#	81442
#
# Disc length: 1341 seconds
#
# Revision: 0
# Processed by: cddbd v1.5.1PL0 Copyright (c) Steve Scherf et al.
# Submitted via: CDex 1.51
#
DISCID=32053b05
DTITLE=佐藤裕美 - Milktea Kiss
DYEAR=2005
DGENRE=Anime
TTITLE0=Milktea Kiss
TTITLE1=ときのゆりかご
TTITLE2=Milktea Kiss -sweet pop mix-
TTITLE3=Milktea Kiss - off vocal version
TTITLE4=ときのゆりかご - off vocal version
EXTD=YEAR: 2005
EXTT0=
EXTT1=
EXTT2=
EXTT3=
EXTT4=
PLAYORDER=
